<?xml version="1.0" encoding="UTF-8" standalone="no"?>
<!DOCTYPE svg PUBLIC "-//W3C//DTD SVG 1.1//EN" "http://www.w3.org/Graphics/SVG/1.1/DTD/svg11.dtd">
<svg width="900.00" height="900.00" viewBox="0.00 0.00 900.00 900.00" xmlns="http://www.w3.org/2000/svg" xmlns:xlink="http://www.w3.org/1999/xlink">
<g stroke-linecap="round" id="Capa_1">
<path d="M441.18,272.46 C437.84,281.35 433.13,290.22 427.61,297.81 C421.97,305.54 411.59,317.00 405.76,321.76 C400.37,326.12 387.23,334.13 381.41,336.80 C375.46,339.50 360.99,344.07 353.94,345.47 C346.59,346.90 330.98,347.62 322.93,347.01 C314.12,346.31 299.42,342.76 292.04,340.00 C283.79,336.89 271.46,330.13 264.43,324.87 C258.17,320.15 247.40,309.73 242.18,302.74 C237.42,296.33 229.72,282.64 227.00,275.30 C224.29,267.89 220.56,251.61 220.11,244.66 C219.62,236.65 220.65,220.06 222.06,213.18 C223.50,206.29 229.17,190.59 232.81,183.36 C236.00,177.10 245.94,163.41 251.40,157.55 C256.61,152.00 268.11,142.88 274.31,138.98 C281.15,134.72 292.64,129.41 300.33,126.97 C307.31,124.78 321.72,121.95 329.32,121.58 C337.32,121.23 354.19,122.54 361.02,124.18 C368.88,126.09 384.34,131.90 390.69,135.33 C396.92,138.73 410.31,148.56 415.88,154.13 C421.12,159.40 430.77,172.74 435.05,180.16 C439.54,188.02 442.41,196.28 444.92,205.50" fill="none" stroke="rgb(255, 255, 255)" stroke-width="3.00" stroke-opacity="1.00" stroke-linejoin="round"/>
<path d="M320.00,206.50 L520.50,206.50 L520.50,271.50 L320.00,271.50 L320.00,206.50 Z" fill="none" stroke="rgb(255, 255, 255)" stroke-width="3.00" stroke-opacity="1.00" stroke-linejoin="miter"/>
<path d="M756.62,224.00 L763.00,224.00 L763.00,248.50 L756.62,248.50" fill="none" stroke="rgb(255, 255, 255)" stroke-width="3.00" stroke-opacity="1.00" stroke-linejoin="miter"/>
<path d="M679.88,248.50 L521.00,248.50 L521.00,224.00 L679.88,224.00" fill="none" stroke="rgb(255, 255, 255)" stroke-width="3.00" stroke-opacity="1.00" stroke-linejoin="miter"/>
<path d="M681.00,214.00 L755.50,214.00 L755.50,257.00 L681.00,257.00 L681.00,214.00 Z" fill="none" stroke="rgb(255, 255, 255)" stroke-width="3.00" stroke-opacity="1.00" stroke-linejoin="miter"/>
<path d="M707.70,133.59 L730.70,133.41 L731.30,213.91 L708.30,214.09 L707.70,133.59 Z" fill="none" stroke="rgb(255, 255, 255)" stroke-width="3.00" stroke-opacity="1.00" stroke-linejoin="miter"/>
<path d="M686.50,98.00 L751.50,98.00 L751.50,121.00 L686.50,121.00 L686.50,98.00 Z" fill="none" stroke="rgb(255, 255, 255)" stroke-width="3.00" stroke-opacity="1.00" stroke-linejoin="miter"/>
<path d="M698.50,120.50 L740.50,120.50 L740.50,133.00 L698.50,133.00 L698.50,120.50 Z" fill="none" stroke="rgb(255, 255, 255)" stroke-width="3.00" stroke-opacity="1.00" stroke-linejoin="miter"/>
<path d="M707.33,257.00 L730.67,257.00 L730.67,707.00 L707.33,707.00 L707.33,257.00 Z" fill="none" stroke="rgb(255, 255, 255)" stroke-width="3.00" stroke-opacity="1.00" stroke-linejoin="miter"/>
<path d="M333.33,161.67 L416.00,161.67 L416.00,205.67 L333.33,205.67 L333.33,161.67 Z" fill="none" stroke="rgb(255, 255, 255)" stroke-width="3.00" stroke-opacity="1.00" stroke-linejoin="miter"/>
<path d="M355.34,176.39 C355.15,176.32 350.98,176.69 349.54,177.75 C347.75,179.12 346.64,181.40 346.63,181.42 C346.47,184.48 347.63,187.67 348.30,188.31 C348.49,188.48 352.19,190.98 353.71,191.17 C355.67,191.39 359.44,189.28 360.35,187.76 C361.41,185.84 362.09,182.25 361.43,180.55 C360.96,179.37 360.16,178.44 359.04,177.76 C357.89,177.12 356.54,176.92 355.34,176.39 Z" fill="none" stroke="rgb(255, 255, 255)" stroke-width="3.00" stroke-opacity="1.00" stroke-linejoin="round"/>
<path d="M417.10,180.49 C417.10,180.49 429.04,205.41 429.04,205.41" fill="none" stroke="rgb(255, 255, 255)" stroke-width="3.00" stroke-opacity="1.00" stroke-linejoin="round"/>
<path d="M409.52,295.62 C408.71,296.76 403.94,303.38 400.32,306.74 C396.68,310.09 385.60,317.81 383.40,319.35" fill="none" stroke="rgb(255, 255, 255)" stroke-width="3.00" stroke-opacity="1.00" stroke-linejoin="round"/>
<path d="M352.22,329.45 C339.41,330.88 325.83,332.10 320.51,330.88 C319.95,330.74 319.30,330.60 318.56,330.44" fill="none" stroke="rgb(255, 255, 255)" stroke-width="3.00" stroke-opacity="1.00" stroke-linejoin="round"/>
<path d="M287.34,319.19 C287.34,319.19 261.05,298.69 261.05,298.69" fill="none" stroke="rgb(255, 255, 255)" stroke-width="3.00" stroke-opacity="1.00" stroke-linejoin="round"/>
<path d="M240.93,261.21 C240.93,261.21 237.21,225.04 237.21,225.04" fill="none" stroke="rgb(255, 255, 255)" stroke-width="3.00" stroke-opacity="1.00" stroke-linejoin="round"/>
<path d="M250.92,184.64 C255.13,179.15 266.26,164.82 269.68,161.26 C273.93,156.87 279.74,153.48 280.75,152.91" fill="none" stroke="rgb(255, 255, 255)" stroke-width="3.00" stroke-opacity="1.00" stroke-linejoin="round"/>
<path d="M317.19,138.13 C329.04,136.60 340.72,135.81 349.87,137.55 C352.34,138.03 361.34,140.30 364.12,141.01" fill="none" stroke="rgb(255, 255, 255)" stroke-width="3.00" stroke-opacity="1.00" stroke-linejoin="round"/>
<path d="M280.67,153.00 L318.87,214.61" fill="none" stroke="rgb(255, 255, 255)" stroke-width="3.00" stroke-opacity="1.00" stroke-linejoin="round"/>
<path d="M317.33,138.33 L329.03,205.37" fill="none" stroke="rgb(255, 255, 255)" stroke-width="3.00" stroke-opacity="1.00" stroke-linejoin="round"/>
<path d="M364.00,141.00 L358.02,160.54" fill="none" stroke="rgb(255, 255, 255)" stroke-width="3.00" stroke-opacity="1.00" stroke-linejoin="round"/>
<path d="M344.32,206.45 L342.36,206.50" fill="none" stroke="rgb(255, 255, 255)" stroke-width="3.00" stroke-opacity="1.00" stroke-linejoin="round"/>
<path d="M318.88,229.26 L250.67,184.33" fill="none" stroke="rgb(255, 255, 255)" stroke-width="3.00" stroke-opacity="1.00" stroke-linejoin="round"/>
<path d="M318.88,237.30 L236.67,225.00" fill="none" stroke="rgb(255, 255, 255)" stroke-width="3.00" stroke-opacity="1.00" stroke-linejoin="round"/>
<path d="M318.88,241.90 L241.33,261.00" fill="none" stroke="rgb(255, 255, 255)" stroke-width="3.00" stroke-opacity="1.00" stroke-linejoin="round"/>
<path d="M318.87,251.73 L261.33,295.67" fill="none" stroke="rgb(255, 255, 255)" stroke-width="3.00" stroke-opacity="1.00" stroke-linejoin="round"/>
<path d="M318.88,264.93 L287.33,319.00" fill="none" stroke="rgb(255, 255, 255)" stroke-width="3.00" stroke-opacity="1.00" stroke-linejoin="round"/>
<path d="M327.93,272.62 L318.67,330.33" fill="none" stroke="rgb(255, 255, 255)" stroke-width="3.00" stroke-opacity="1.00" stroke-linejoin="round"/>
<path d="M339.98,272.62 L352.00,329.00" fill="none" stroke="rgb(255, 255, 255)" stroke-width="3.00" stroke-opacity="1.00" stroke-linejoin="round"/>
<path d="M354.00,272.63 L383.33,319.00" fill="none" stroke="rgb(255, 255, 255)" stroke-width="3.00" stroke-opacity="1.00" stroke-linejoin="round"/>
<path d="M378.06,272.62 L409.33,295.67" fill="none" stroke="rgb(255, 255, 255)" stroke-width="3.00" stroke-opacity="1.00" stroke-linejoin="round"/>
<path d="M220.72,233.76 C220.72,233.76 220.72,233.60 220.72,233.60 C220.72,235.27 220.72,237.91 220.72,238.88 C220.72,262.82 220.72,323.25 220.72,359.76 C220.72,395.95 220.72,465.89 220.72,499.64 C220.72,533.53 220.72,594.72 220.72,622.01 C220.72,659.41 220.72,708.94 220.72,721.07" fill="none" stroke="rgb(255, 255, 255)" stroke-width="3.00" stroke-opacity="1.00" stroke-linejoin="round"/>
<path d="M446.38,270.44 C446.38,270.49 446.38,270.62 446.38,270.64 C446.38,276.08 446.38,287.18 446.38,292.83 C446.38,326.16 446.38,391.73 446.38,423.95 C446.38,426.10 446.38,429.80 446.38,431.36 C446.38,432.59 446.38,433.83 446.38,435.07" fill="none" stroke="rgb(255, 255, 255)" stroke-width="3.00" stroke-opacity="1.00" stroke-linejoin="round"/>
<path d="M220.58,721.93 C220.58,721.93 221.62,721.18 221.62,721.18" fill="none" stroke="rgb(255, 255, 255)" stroke-width="3.00" stroke-opacity="1.00" stroke-linejoin="round"/>
<path d="M433.76,524.27 L428.56,523.17 L447.62,433.17 L455.44,434.83 L438.46,515.00" fill="none" stroke="rgb(255, 255, 255)" stroke-width="3.00" stroke-opacity="1.00" stroke-linejoin="miter"/>
<path d="M440.33,517.07 L513.56,532.46 L511.81,540.78 L436.94,525.04" fill="none" stroke="rgb(255, 255, 255)" stroke-width="3.00" stroke-opacity="1.00" stroke-linejoin="miter"/>
<path d="M470.26,513.51 L482.03,463.83 L490.30,465.79 L478.60,515.19" fill="none" stroke="rgb(255, 255, 255)" stroke-width="3.00" stroke-opacity="1.00" stroke-linejoin="miter"/>
<path d="M437.50,515.91 C437.50,515.91 437.54,515.97 437.54,515.97 C437.54,515.97 437.62,515.86 437.62,515.86 C438.53,516.34 441.22,516.70 442.27,516.72 C442.46,516.72 442.79,516.74 443.24,516.77" fill="none" stroke="rgb(255, 255, 255)" stroke-width="3.00" stroke-opacity="1.00" stroke-linejoin="round"/>
<path d="M434.09,524.34 C434.09,524.34 434.31,523.91 434.31,523.91 C434.31,523.91 434.39,524.04 434.39,524.04 C435.27,524.38 438.28,524.96 439.79,524.97 C440.49,524.98 441.77,524.47 442.17,524.34" fill="none" stroke="rgb(255, 255, 255)" stroke-width="3.00" stroke-opacity="1.00" stroke-linejoin="round"/>
<path d="M447.46,510.07 L504.81,521.61 L503.04,530.43 L445.69,518.89 L447.46,510.07 Z" fill="none" stroke="rgb(255, 255, 255)" stroke-width="3.00" stroke-opacity="1.00" stroke-linejoin="miter"/>
<path d="M207.76,813.27 L202.56,812.17 L221.62,722.17 L229.44,723.83 L212.46,804.00" fill="none" stroke="rgb(255, 255, 255)" stroke-width="3.00" stroke-opacity="1.00" stroke-linejoin="miter"/>
<path d="M214.33,806.07 L287.56,821.46 L285.81,829.78 L210.94,814.04" fill="none" stroke="rgb(255, 255, 255)" stroke-width="3.00" stroke-opacity="1.00" stroke-linejoin="miter"/>
<path d="M244.26,802.51 L256.03,752.83 L264.30,754.79 L252.60,804.19" fill="none" stroke="rgb(255, 255, 255)" stroke-width="3.00" stroke-opacity="1.00" stroke-linejoin="miter"/>
<path d="M221.46,799.07 L278.81,810.61 L277.04,819.43 L219.69,807.89 L221.46,799.07 Z" fill="none" stroke="rgb(255, 255, 255)" stroke-width="3.00" stroke-opacity="1.00" stroke-linejoin="miter"/>
</g>
</svg>
